<mxfile host="app.diagrams.net" agent="Mozilla/5.0 (Windows NT 10.0; Win64; x64) AppleWebKit/537.36 (KHTML, like Gecko) Chrome/131.0.0.0 Safari/537.36" version="25.0.3">
  <diagram name="Page-1" id="Dayak1WKUkfbZruB-JnT">
    <mxGraphModel grid="1" page="1" gridSize="10" guides="1" tooltips="1" connect="1" arrows="1" fold="1" pageScale="1" pageWidth="827" pageHeight="1169" math="0" shadow="0">
      <root>
        <mxCell id="0" />
        <mxCell id="1" parent="0" />
        <mxCell id="wG5UnU2wglT1h0br6aX6-20" value="" style="rounded=0;whiteSpace=wrap;html=1;movable=1;resizable=1;rotatable=1;deletable=1;editable=1;locked=0;connectable=1;" vertex="1" parent="1">
          <mxGeometry x="60" y="140" width="810" height="1210" as="geometry" />
        </mxCell>
        <mxCell id="Lcuc6FBBaNSL7de0GXR9-1" value="" style="rounded=0;whiteSpace=wrap;html=1;fillColor=#f5f5f5;fontColor=#333333;strokeColor=#666666;" vertex="1" parent="1">
          <mxGeometry x="230" y="210" width="100" height="1100" as="geometry" />
        </mxCell>
        <mxCell id="Lcuc6FBBaNSL7de0GXR9-2" value="" style="rounded=0;whiteSpace=wrap;html=1;fillColor=#f5f5f5;fontColor=#333333;strokeColor=#666666;" vertex="1" parent="1">
          <mxGeometry x="360" y="210" width="210" height="1100" as="geometry" />
        </mxCell>
        <mxCell id="Lcuc6FBBaNSL7de0GXR9-3" value="" style="rounded=0;whiteSpace=wrap;html=1;fillColor=#f5f5f5;fontColor=#333333;strokeColor=#666666;" vertex="1" parent="1">
          <mxGeometry x="600" y="210" width="100" height="1100" as="geometry" />
        </mxCell>
        <mxCell id="Lcuc6FBBaNSL7de0GXR9-4" value="" style="rounded=0;whiteSpace=wrap;html=1;fillColor=#f5f5f5;fontColor=#333333;strokeColor=#666666;" vertex="1" parent="1">
          <mxGeometry x="730" y="210" width="100" height="1100" as="geometry" />
        </mxCell>
        <mxCell id="Lcuc6FBBaNSL7de0GXR9-5" value="Entra ID" style="text;html=1;align=center;verticalAlign=middle;whiteSpace=wrap;rounded=0;" vertex="1" parent="1">
          <mxGeometry x="730" y="180" width="100" height="30" as="geometry" />
        </mxCell>
        <mxCell id="Lcuc6FBBaNSL7de0GXR9-6" value="Web Browser" style="text;html=1;align=center;verticalAlign=middle;whiteSpace=wrap;rounded=0;" vertex="1" parent="1">
          <mxGeometry x="600" y="180" width="100" height="30" as="geometry" />
        </mxCell>
        <mxCell id="Lcuc6FBBaNSL7de0GXR9-7" value="TFM UI" style="text;html=1;align=center;verticalAlign=middle;whiteSpace=wrap;rounded=0;" vertex="1" parent="1">
          <mxGeometry x="360" y="180" width="210" height="30" as="geometry" />
        </mxCell>
        <mxCell id="Lcuc6FBBaNSL7de0GXR9-8" value="TFM API" style="text;html=1;align=center;verticalAlign=middle;whiteSpace=wrap;rounded=0;" vertex="1" parent="1">
          <mxGeometry x="230" y="180" width="100" height="30" as="geometry" />
        </mxCell>
        <mxCell id="Lcuc6FBBaNSL7de0GXR9-34" style="edgeStyle=orthogonalEdgeStyle;rounded=0;orthogonalLoop=1;jettySize=auto;html=1;exitX=0;exitY=0.5;exitDx=0;exitDy=0;entryX=1;entryY=0.5;entryDx=0;entryDy=0;" edge="1" parent="1" source="Lcuc6FBBaNSL7de0GXR9-9" target="Lcuc6FBBaNSL7de0GXR9-13">
          <mxGeometry relative="1" as="geometry" />
        </mxCell>
        <mxCell id="Lcuc6FBBaNSL7de0GXR9-9" value="User navigates to a TFM page" style="rounded=1;whiteSpace=wrap;html=1;fontSize=8;fillColor=#d5e8d4;strokeColor=#82b366;" vertex="1" parent="1">
          <mxGeometry x="610" y="280" width="80" height="50" as="geometry" />
        </mxCell>
        <mxCell id="Lcuc6FBBaNSL7de0GXR9-11" value="" style="endArrow=classic;html=1;rounded=0;exitX=0.5;exitY=1;exitDx=0;exitDy=0;" edge="1" parent="1" source="Lcuc6FBBaNSL7de0GXR9-10" target="Lcuc6FBBaNSL7de0GXR9-9">
          <mxGeometry width="50" height="50" relative="1" as="geometry">
            <mxPoint x="650" y="245" as="sourcePoint" />
            <mxPoint x="720" y="285" as="targetPoint" />
          </mxGeometry>
        </mxCell>
        <mxCell id="wG5UnU2wglT1h0br6aX6-40" style="edgeStyle=orthogonalEdgeStyle;rounded=0;orthogonalLoop=1;jettySize=auto;html=1;exitX=0.5;exitY=1;exitDx=0;exitDy=0;entryX=0.5;entryY=0;entryDx=0;entryDy=0;" edge="1" parent="1" source="Lcuc6FBBaNSL7de0GXR9-13">
          <mxGeometry relative="1" as="geometry">
            <mxPoint x="519" y="380" as="targetPoint" />
          </mxGeometry>
        </mxCell>
        <mxCell id="wG5UnU2wglT1h0br6aX6-41" value="&lt;font style=&quot;font-size: 8px;&quot;&gt;No&lt;/font&gt;" style="edgeLabel;html=1;align=center;verticalAlign=middle;resizable=0;points=[];" vertex="1" connectable="0" parent="wG5UnU2wglT1h0br6aX6-40">
          <mxGeometry x="-0.488" relative="1" as="geometry">
            <mxPoint y="4" as="offset" />
          </mxGeometry>
        </mxCell>
        <mxCell id="wG5UnU2wglT1h0br6aX6-42" style="edgeStyle=orthogonalEdgeStyle;rounded=0;orthogonalLoop=1;jettySize=auto;html=1;exitX=0;exitY=0.5;exitDx=0;exitDy=0;" edge="1" parent="1" source="Lcuc6FBBaNSL7de0GXR9-13" target="wG5UnU2wglT1h0br6aX6-29">
          <mxGeometry relative="1" as="geometry" />
        </mxCell>
        <mxCell id="wG5UnU2wglT1h0br6aX6-43" value="&lt;font style=&quot;font-size: 8px;&quot;&gt;Yes&lt;/font&gt;" style="edgeLabel;html=1;align=center;verticalAlign=middle;resizable=0;points=[];" vertex="1" connectable="0" parent="wG5UnU2wglT1h0br6aX6-42">
          <mxGeometry x="-0.7152" y="-1" relative="1" as="geometry">
            <mxPoint as="offset" />
          </mxGeometry>
        </mxCell>
        <mxCell id="Lcuc6FBBaNSL7de0GXR9-13" value="&lt;font style=&quot;font-size: 8px;&quot;&gt;Pag&lt;/font&gt;&lt;font style=&quot;font-size: 8px;&quot;&gt;&lt;font style=&quot;font-size: 8px;&quot;&gt;e&amp;nbsp;&lt;/font&gt;&lt;span style=&quot;background-color: initial;&quot;&gt;requires&lt;/span&gt;&lt;/font&gt;&lt;div&gt;&lt;span style=&quot;font-size: 8px; background-color: initial;&quot;&gt;authentication?&lt;/span&gt;&lt;/div&gt;" style="rhombus;whiteSpace=wrap;html=1;fillColor=#dae8fc;strokeColor=#6c8ebf;" vertex="1" parent="1">
          <mxGeometry x="479" y="265" width="80" height="80" as="geometry" />
        </mxCell>
        <mxCell id="Lcuc6FBBaNSL7de0GXR9-25" style="edgeStyle=orthogonalEdgeStyle;rounded=0;orthogonalLoop=1;jettySize=auto;html=1;exitX=1;exitY=0.5;exitDx=0;exitDy=0;entryX=0;entryY=0.5;entryDx=0;entryDy=0;" edge="1" parent="1" source="Lcuc6FBBaNSL7de0GXR9-21" target="Lcuc6FBBaNSL7de0GXR9-24">
          <mxGeometry relative="1" as="geometry" />
        </mxCell>
        <mxCell id="Lcuc6FBBaNSL7de0GXR9-21" value="Return redirect to Entra ID login URL" style="rounded=1;whiteSpace=wrap;html=1;fontSize=8;fillColor=#d5e8d4;strokeColor=#82b366;" vertex="1" parent="1">
          <mxGeometry x="480" y="500" width="80" height="50" as="geometry" />
        </mxCell>
        <mxCell id="Lcuc6FBBaNSL7de0GXR9-28" style="edgeStyle=orthogonalEdgeStyle;rounded=0;orthogonalLoop=1;jettySize=auto;html=1;exitX=1;exitY=0.5;exitDx=0;exitDy=0;entryX=0;entryY=0.5;entryDx=0;entryDy=0;" edge="1" parent="1" source="Lcuc6FBBaNSL7de0GXR9-24" target="Lcuc6FBBaNSL7de0GXR9-27">
          <mxGeometry relative="1" as="geometry" />
        </mxCell>
        <mxCell id="Lcuc6FBBaNSL7de0GXR9-24" value="User is redirected to the Entra ID login URL" style="rounded=1;whiteSpace=wrap;html=1;fontSize=8;fillColor=#d5e8d4;strokeColor=#82b366;" vertex="1" parent="1">
          <mxGeometry x="610" y="500" width="80" height="50" as="geometry" />
        </mxCell>
        <mxCell id="Lcuc6FBBaNSL7de0GXR9-32" style="edgeStyle=orthogonalEdgeStyle;rounded=0;orthogonalLoop=1;jettySize=auto;html=1;exitX=0.5;exitY=1;exitDx=0;exitDy=0;entryX=1;entryY=0.5;entryDx=0;entryDy=0;" edge="1" parent="1" source="Lcuc6FBBaNSL7de0GXR9-27" target="Lcuc6FBBaNSL7de0GXR9-31">
          <mxGeometry relative="1" as="geometry">
            <mxPoint x="780" y="560" as="sourcePoint" />
          </mxGeometry>
        </mxCell>
        <mxCell id="Lcuc6FBBaNSL7de0GXR9-27" value="Return Entra ID login page" style="rounded=1;whiteSpace=wrap;html=1;fontSize=8;fillColor=#d5e8d4;strokeColor=#82b366;" vertex="1" parent="1">
          <mxGeometry x="740" y="500" width="80" height="50" as="geometry" />
        </mxCell>
        <mxCell id="Lcuc6FBBaNSL7de0GXR9-44" style="edgeStyle=orthogonalEdgeStyle;rounded=0;orthogonalLoop=1;jettySize=auto;html=1;exitX=0.5;exitY=1;exitDx=0;exitDy=0;entryX=0.5;entryY=0;entryDx=0;entryDy=0;" edge="1" parent="1" source="Lcuc6FBBaNSL7de0GXR9-31" target="Lcuc6FBBaNSL7de0GXR9-35">
          <mxGeometry relative="1" as="geometry" />
        </mxCell>
        <mxCell id="Lcuc6FBBaNSL7de0GXR9-31" value="User views the Entra ID login page" style="rounded=1;whiteSpace=wrap;html=1;fontSize=8;fillColor=#d5e8d4;strokeColor=#82b366;" vertex="1" parent="1">
          <mxGeometry x="610" y="570" width="80" height="50" as="geometry" />
        </mxCell>
        <mxCell id="Lcuc6FBBaNSL7de0GXR9-38" style="edgeStyle=orthogonalEdgeStyle;rounded=0;orthogonalLoop=1;jettySize=auto;html=1;exitX=1;exitY=0.5;exitDx=0;exitDy=0;entryX=0.5;entryY=0;entryDx=0;entryDy=0;" edge="1" parent="1" source="Lcuc6FBBaNSL7de0GXR9-35" target="Lcuc6FBBaNSL7de0GXR9-37">
          <mxGeometry relative="1" as="geometry">
            <mxPoint x="690" y="692.5" as="sourcePoint" />
            <Array as="points">
              <mxPoint x="780" y="665" />
            </Array>
          </mxGeometry>
        </mxCell>
        <mxCell id="Lcuc6FBBaNSL7de0GXR9-35" value="User enters their UKEF Microsoft credentials" style="rounded=1;whiteSpace=wrap;html=1;fontSize=8;fillColor=#d5e8d4;strokeColor=#82b366;" vertex="1" parent="1">
          <mxGeometry x="610" y="640" width="80" height="50" as="geometry" />
        </mxCell>
        <mxCell id="Lcuc6FBBaNSL7de0GXR9-39" style="edgeStyle=orthogonalEdgeStyle;rounded=0;orthogonalLoop=1;jettySize=auto;html=1;exitX=0;exitY=0.5;exitDx=0;exitDy=0;entryX=0.5;entryY=1;entryDx=0;entryDy=0;" edge="1" parent="1" source="Lcuc6FBBaNSL7de0GXR9-37" target="Lcuc6FBBaNSL7de0GXR9-35">
          <mxGeometry relative="1" as="geometry">
            <Array as="points">
              <mxPoint x="650" y="730" />
            </Array>
          </mxGeometry>
        </mxCell>
        <mxCell id="Lcuc6FBBaNSL7de0GXR9-40" value="&lt;font style=&quot;font-size: 8px;&quot;&gt;No&lt;/font&gt;" style="edgeLabel;html=1;align=center;verticalAlign=middle;resizable=0;points=[];" vertex="1" connectable="0" parent="Lcuc6FBBaNSL7de0GXR9-39">
          <mxGeometry x="-0.2052" y="1" relative="1" as="geometry">
            <mxPoint y="-2" as="offset" />
          </mxGeometry>
        </mxCell>
        <mxCell id="Lcuc6FBBaNSL7de0GXR9-42" value="" style="edgeStyle=orthogonalEdgeStyle;rounded=0;orthogonalLoop=1;jettySize=auto;html=1;exitX=0.5;exitY=1;exitDx=0;exitDy=0;entryX=0.5;entryY=0;entryDx=0;entryDy=0;" edge="1" parent="1" source="Lcuc6FBBaNSL7de0GXR9-37" target="Lcuc6FBBaNSL7de0GXR9-41">
          <mxGeometry relative="1" as="geometry" />
        </mxCell>
        <mxCell id="Lcuc6FBBaNSL7de0GXR9-43" value="&lt;font style=&quot;font-size: 8px;&quot;&gt;Yes&lt;/font&gt;" style="edgeLabel;html=1;align=center;verticalAlign=middle;resizable=0;points=[];" vertex="1" connectable="0" parent="Lcuc6FBBaNSL7de0GXR9-42">
          <mxGeometry x="-0.3913" relative="1" as="geometry">
            <mxPoint y="1" as="offset" />
          </mxGeometry>
        </mxCell>
        <mxCell id="Lcuc6FBBaNSL7de0GXR9-37" value="&lt;span style=&quot;font-size: 8px;&quot;&gt;Credentials&lt;/span&gt;&lt;div&gt;&lt;span style=&quot;font-size: 8px;&quot;&gt;are valid?&lt;/span&gt;&lt;/div&gt;" style="rhombus;whiteSpace=wrap;html=1;fillColor=#dae8fc;strokeColor=#6c8ebf;" vertex="1" parent="1">
          <mxGeometry x="740" y="690" width="80" height="80" as="geometry" />
        </mxCell>
        <mxCell id="Lcuc6FBBaNSL7de0GXR9-46" style="edgeStyle=orthogonalEdgeStyle;rounded=0;orthogonalLoop=1;jettySize=auto;html=1;exitX=0;exitY=0.5;exitDx=0;exitDy=0;entryX=1;entryY=0.5;entryDx=0;entryDy=0;" edge="1" parent="1" source="Lcuc6FBBaNSL7de0GXR9-41" target="Lcuc6FBBaNSL7de0GXR9-45">
          <mxGeometry relative="1" as="geometry" />
        </mxCell>
        <mxCell id="Lcuc6FBBaNSL7de0GXR9-41" value="Return &quot;Auth Code&quot; in redirect to TFM UI &quot;sso-redirect&quot; URL" style="rounded=1;whiteSpace=wrap;html=1;fontSize=8;fillColor=#d5e8d4;strokeColor=#82b366;" vertex="1" parent="1">
          <mxGeometry x="740" y="800" width="80" height="50" as="geometry" />
        </mxCell>
        <mxCell id="Lcuc6FBBaNSL7de0GXR9-48" style="edgeStyle=orthogonalEdgeStyle;rounded=0;orthogonalLoop=1;jettySize=auto;html=1;exitX=0;exitY=0.5;exitDx=0;exitDy=0;entryX=1;entryY=0.5;entryDx=0;entryDy=0;" edge="1" parent="1" source="Lcuc6FBBaNSL7de0GXR9-45" target="Lcuc6FBBaNSL7de0GXR9-47">
          <mxGeometry relative="1" as="geometry" />
        </mxCell>
        <mxCell id="Lcuc6FBBaNSL7de0GXR9-45" value="User is redirected to the TFM UI &quot;sso-redirect&quot; URL" style="rounded=1;whiteSpace=wrap;html=1;fontSize=8;fillColor=#d5e8d4;strokeColor=#82b366;" vertex="1" parent="1">
          <mxGeometry x="610" y="800" width="80" height="50" as="geometry" />
        </mxCell>
        <mxCell id="Lcuc6FBBaNSL7de0GXR9-51" style="edgeStyle=orthogonalEdgeStyle;rounded=0;orthogonalLoop=1;jettySize=auto;html=1;exitX=0.5;exitY=1;exitDx=0;exitDy=0;entryX=0;entryY=0.25;entryDx=0;entryDy=0;" edge="1" parent="1" source="Lcuc6FBBaNSL7de0GXR9-47" target="Lcuc6FBBaNSL7de0GXR9-49">
          <mxGeometry relative="1" as="geometry" />
        </mxCell>
        <mxCell id="Lcuc6FBBaNSL7de0GXR9-47" value="Return &quot;accept-sso-redirect&quot; form page" style="rounded=1;whiteSpace=wrap;html=1;fontSize=8;fillColor=#d5e8d4;strokeColor=#82b366;" vertex="1" parent="1">
          <mxGeometry x="480" y="800" width="80" height="50" as="geometry" />
        </mxCell>
        <mxCell id="Lcuc6FBBaNSL7de0GXR9-53" style="edgeStyle=orthogonalEdgeStyle;rounded=0;orthogonalLoop=1;jettySize=auto;html=1;exitX=0;exitY=0.75;exitDx=0;exitDy=0;entryX=0.5;entryY=0;entryDx=0;entryDy=0;" edge="1" parent="1" source="Lcuc6FBBaNSL7de0GXR9-49" target="Lcuc6FBBaNSL7de0GXR9-52">
          <mxGeometry relative="1" as="geometry" />
        </mxCell>
        <mxCell id="Lcuc6FBBaNSL7de0GXR9-49" value="User briefly sees &quot;accept-sso-redirect&quot; form, which is auto-submitted" style="rounded=1;whiteSpace=wrap;html=1;fontSize=8;fillColor=#d5e8d4;strokeColor=#82b366;" vertex="1" parent="1">
          <mxGeometry x="610" y="868.8" width="80" height="50" as="geometry" />
        </mxCell>
        <mxCell id="Lcuc6FBBaNSL7de0GXR9-78" style="edgeStyle=orthogonalEdgeStyle;rounded=0;orthogonalLoop=1;jettySize=auto;html=1;exitX=0.5;exitY=1;exitDx=0;exitDy=0;entryX=0.5;entryY=0;entryDx=0;entryDy=0;" edge="1" parent="1" source="9-1F9sOe33zGmoDG1BaW-5" target="Lcuc6FBBaNSL7de0GXR9-77">
          <mxGeometry relative="1" as="geometry">
            <mxPoint x="780" y="1080" as="targetPoint" />
            <Array as="points">
              <mxPoint x="280" y="1000" />
              <mxPoint x="780" y="1000" />
            </Array>
          </mxGeometry>
        </mxCell>
        <mxCell id="9-1F9sOe33zGmoDG1BaW-9" style="edgeStyle=none;curved=1;rounded=0;orthogonalLoop=1;jettySize=auto;html=1;fontSize=12;startSize=8;endSize=8;" edge="1" parent="1" source="Lcuc6FBBaNSL7de0GXR9-52" target="9-1F9sOe33zGmoDG1BaW-5">
          <mxGeometry relative="1" as="geometry" />
        </mxCell>
        <mxCell id="Lcuc6FBBaNSL7de0GXR9-52" value="Sends Auth Code to TFM API" style="rounded=1;whiteSpace=wrap;html=1;fontSize=8;fillColor=#d5e8d4;strokeColor=#82b366;" vertex="1" parent="1">
          <mxGeometry x="480" y="930" width="80" height="50" as="geometry" />
        </mxCell>
        <mxCell id="Lcuc6FBBaNSL7de0GXR9-115" style="edgeStyle=orthogonalEdgeStyle;rounded=0;orthogonalLoop=1;jettySize=auto;html=1;exitX=0.5;exitY=1;exitDx=0;exitDy=0;entryX=0.5;entryY=0;entryDx=0;entryDy=0;" edge="1" parent="1" source="Lcuc6FBBaNSL7de0GXR9-77" target="Lcuc6FBBaNSL7de0GXR9-121">
          <mxGeometry relative="1" as="geometry" />
        </mxCell>
        <mxCell id="Lcuc6FBBaNSL7de0GXR9-116" value="&lt;font style=&quot;font-size: 8px;&quot;&gt;Yes&lt;/font&gt;" style="edgeLabel;html=1;align=center;verticalAlign=middle;resizable=0;points=[];" vertex="1" connectable="0" parent="Lcuc6FBBaNSL7de0GXR9-115">
          <mxGeometry x="-0.9075" relative="1" as="geometry">
            <mxPoint x="-1" y="8" as="offset" />
          </mxGeometry>
        </mxCell>
        <mxCell id="wG5UnU2wglT1h0br6aX6-7" style="edgeStyle=orthogonalEdgeStyle;rounded=0;orthogonalLoop=1;jettySize=auto;html=1;exitX=0;exitY=0.5;exitDx=0;exitDy=0;entryX=1;entryY=0.5;entryDx=0;entryDy=0;" edge="1" parent="1" source="Lcuc6FBBaNSL7de0GXR9-77">
          <mxGeometry relative="1" as="geometry">
            <mxPoint x="320" y="1050" as="targetPoint" />
          </mxGeometry>
        </mxCell>
        <mxCell id="wG5UnU2wglT1h0br6aX6-12" value="&lt;font style=&quot;font-size: 8px;&quot;&gt;No&lt;/font&gt;" style="edgeLabel;html=1;align=center;verticalAlign=middle;resizable=0;points=[];" vertex="1" connectable="0" parent="wG5UnU2wglT1h0br6aX6-7">
          <mxGeometry x="-0.7" relative="1" as="geometry">
            <mxPoint x="1" y="-1" as="offset" />
          </mxGeometry>
        </mxCell>
        <mxCell id="Lcuc6FBBaNSL7de0GXR9-77" value="&lt;span style=&quot;font-size: 8px;&quot;&gt;Auth Code&lt;/span&gt;&lt;div&gt;&lt;span style=&quot;font-size: 8px;&quot;&gt;is valid?&lt;/span&gt;&lt;/div&gt;" style="rhombus;whiteSpace=wrap;html=1;fillColor=#dae8fc;strokeColor=#6c8ebf;" vertex="1" parent="1">
          <mxGeometry x="740" y="1010" width="80" height="80" as="geometry" />
        </mxCell>
        <mxCell id="9-1F9sOe33zGmoDG1BaW-14" style="edgeStyle=orthogonalEdgeStyle;rounded=0;orthogonalLoop=1;jettySize=auto;html=1;entryX=1;entryY=0.5;entryDx=0;entryDy=0;fontSize=12;startSize=8;endSize=8;" edge="1" parent="1" source="Lcuc6FBBaNSL7de0GXR9-121" target="9-1F9sOe33zGmoDG1BaW-13">
          <mxGeometry relative="1" as="geometry" />
        </mxCell>
        <mxCell id="Lcuc6FBBaNSL7de0GXR9-121" value="Send response to TFM API" style="rounded=1;whiteSpace=wrap;html=1;fontSize=8;fillColor=#d5e8d4;strokeColor=#82b366;" vertex="1" parent="1">
          <mxGeometry x="740" y="1160" width="80" height="50" as="geometry" />
        </mxCell>
        <mxCell id="wG5UnU2wglT1h0br6aX6-15" value="&lt;font style=&quot;font-size: 12px;&quot;&gt;Action&lt;/font&gt;" style="rounded=1;whiteSpace=wrap;html=1;fontSize=8;fillColor=#d5e8d4;strokeColor=#82b366;" vertex="1" parent="1">
          <mxGeometry x="130.5" y="50" width="80" height="50" as="geometry" />
        </mxCell>
        <mxCell id="wG5UnU2wglT1h0br6aX6-17" value="&lt;font style=&quot;font-size: 12px;&quot;&gt;Decision&lt;/font&gt;" style="rhombus;whiteSpace=wrap;html=1;fillColor=#dae8fc;strokeColor=#6c8ebf;" vertex="1" parent="1">
          <mxGeometry x="269.75" y="35" width="80" height="80" as="geometry" />
        </mxCell>
        <mxCell id="wG5UnU2wglT1h0br6aX6-21" value="&lt;font style=&quot;font-size: 16px;&quot;&gt;Authenticate Page Request&lt;/font&gt;" style="text;html=1;align=center;verticalAlign=middle;whiteSpace=wrap;rounded=0;" vertex="1" parent="1">
          <mxGeometry x="100" y="140" width="730" height="40" as="geometry" />
        </mxCell>
        <mxCell id="wG5UnU2wglT1h0br6aX6-34" style="edgeStyle=orthogonalEdgeStyle;rounded=0;orthogonalLoop=1;jettySize=auto;html=1;exitX=1;exitY=0.5;exitDx=0;exitDy=0;entryX=0;entryY=0.5;entryDx=0;entryDy=0;" edge="1" parent="1" target="wG5UnU2wglT1h0br6aX6-30">
          <mxGeometry relative="1" as="geometry">
            <mxPoint x="559" y="405" as="sourcePoint" />
          </mxGeometry>
        </mxCell>
        <mxCell id="wG5UnU2wglT1h0br6aX6-37" style="edgeStyle=orthogonalEdgeStyle;rounded=0;orthogonalLoop=1;jettySize=auto;html=1;exitX=0.5;exitY=1;exitDx=0;exitDy=0;entryX=0;entryY=0.5;entryDx=0;entryDy=0;" edge="1" parent="1" source="wG5UnU2wglT1h0br6aX6-29" target="Lcuc6FBBaNSL7de0GXR9-21">
          <mxGeometry relative="1" as="geometry" />
        </mxCell>
        <mxCell id="wG5UnU2wglT1h0br6aX6-38" value="&lt;font style=&quot;font-size: 8px;&quot;&gt;No&lt;/font&gt;" style="edgeLabel;html=1;align=center;verticalAlign=middle;resizable=0;points=[];" vertex="1" connectable="0" parent="wG5UnU2wglT1h0br6aX6-37">
          <mxGeometry x="-0.8273" relative="1" as="geometry">
            <mxPoint y="1" as="offset" />
          </mxGeometry>
        </mxCell>
        <mxCell id="wG5UnU2wglT1h0br6aX6-44" style="edgeStyle=orthogonalEdgeStyle;rounded=0;orthogonalLoop=1;jettySize=auto;html=1;exitX=1;exitY=0.5;exitDx=0;exitDy=0;entryX=0;entryY=0.5;entryDx=0;entryDy=0;" edge="1" parent="1" source="wG5UnU2wglT1h0br6aX6-29">
          <mxGeometry relative="1" as="geometry">
            <mxPoint x="479" y="405" as="targetPoint" />
          </mxGeometry>
        </mxCell>
        <mxCell id="wG5UnU2wglT1h0br6aX6-45" value="&lt;font style=&quot;font-size: 8px;&quot;&gt;Yes&lt;/font&gt;" style="edgeLabel;html=1;align=center;verticalAlign=middle;resizable=0;points=[];" vertex="1" connectable="0" parent="wG5UnU2wglT1h0br6aX6-44">
          <mxGeometry x="-0.3793" y="-1" relative="1" as="geometry">
            <mxPoint x="1" y="-2" as="offset" />
          </mxGeometry>
        </mxCell>
        <mxCell id="wG5UnU2wglT1h0br6aX6-29" value="&lt;span style=&quot;font-size: 8px;&quot;&gt;User already&lt;/span&gt;&lt;div&gt;&lt;span style=&quot;font-size: 8px; background-color: initial;&quot;&gt;authenticated?&lt;/span&gt;&lt;/div&gt;" style="rhombus;whiteSpace=wrap;html=1;fillColor=#dae8fc;strokeColor=#6c8ebf;" vertex="1" parent="1">
          <mxGeometry x="370" y="365" width="80" height="80" as="geometry" />
        </mxCell>
        <mxCell id="wG5UnU2wglT1h0br6aX6-51" style="edgeStyle=orthogonalEdgeStyle;rounded=0;orthogonalLoop=1;jettySize=auto;html=1;exitX=0.5;exitY=1;exitDx=0;exitDy=0;entryX=0.5;entryY=0;entryDx=0;entryDy=0;" edge="1" parent="1" source="wG5UnU2wglT1h0br6aX6-30" target="wG5UnU2wglT1h0br6aX6-49">
          <mxGeometry relative="1" as="geometry" />
        </mxCell>
        <mxCell id="wG5UnU2wglT1h0br6aX6-30" value="User views the requested page" style="rounded=1;whiteSpace=wrap;html=1;fontSize=8;fillColor=#d5e8d4;strokeColor=#82b366;" vertex="1" parent="1">
          <mxGeometry x="609" y="380" width="80" height="50" as="geometry" />
        </mxCell>
        <mxCell id="wG5UnU2wglT1h0br6aX6-47" value="Start" style="ellipse;whiteSpace=wrap;html=1;aspect=fixed;fillColor=#FFFFFF;" vertex="1" parent="1">
          <mxGeometry x="40" y="60" width="30" height="30" as="geometry" />
        </mxCell>
        <mxCell id="wG5UnU2wglT1h0br6aX6-49" value="End" style="ellipse;whiteSpace=wrap;html=1;aspect=fixed;fillColor=#000000;fontColor=#FFFFFF;" vertex="1" parent="1">
          <mxGeometry x="635" y="450" width="30" height="30" as="geometry" />
        </mxCell>
        <mxCell id="Lcuc6FBBaNSL7de0GXR9-10" value="Start" style="ellipse;whiteSpace=wrap;html=1;aspect=fixed;fillColor=#FFFFFF;" vertex="1" parent="1">
          <mxGeometry x="635" y="230" width="30" height="30" as="geometry" />
        </mxCell>
        <mxCell id="m_7IIXfJI59nqVnkT6im-95" value="1" style="ellipse;whiteSpace=wrap;html=1;aspect=fixed;labelBackgroundColor=none;fillColor=#e1d5e7;strokeColor=#9673a6;fontSize=8;" vertex="1" parent="1">
          <mxGeometry x="410" y="66.25" width="17.5" height="17.5" as="geometry" />
        </mxCell>
        <mxCell id="m_7IIXfJI59nqVnkT6im-97" value="Note reference" style="text;html=1;align=left;verticalAlign=middle;whiteSpace=wrap;rounded=0;" vertex="1" parent="1">
          <mxGeometry x="437.5" y="60" width="90" height="30" as="geometry" />
        </mxCell>
        <mxCell id="ssGrPm5wxXxE40Y-NDGN-1" value="1" style="ellipse;whiteSpace=wrap;html=1;aspect=fixed;labelBackgroundColor=none;fillColor=#e1d5e7;strokeColor=#9673a6;fontSize=8;" vertex="1" parent="1">
          <mxGeometry x="387.5" y="365" width="17.5" height="17.5" as="geometry" />
        </mxCell>
        <mxCell id="ssGrPm5wxXxE40Y-NDGN-2" value="2" style="ellipse;whiteSpace=wrap;html=1;aspect=fixed;labelBackgroundColor=none;fillColor=#e1d5e7;strokeColor=#9673a6;fontSize=8;" vertex="1" parent="1">
          <mxGeometry x="730" y="790" width="17.5" height="17.5" as="geometry" />
        </mxCell>
        <mxCell id="ssGrPm5wxXxE40Y-NDGN-3" value="4" style="ellipse;whiteSpace=wrap;html=1;aspect=fixed;labelBackgroundColor=none;fillColor=#e1d5e7;strokeColor=#9673a6;fontSize=8;" vertex="1" parent="1">
          <mxGeometry x="470" y="920" width="17.5" height="17.5" as="geometry" />
        </mxCell>
        <mxCell id="ssGrPm5wxXxE40Y-NDGN-4" value="3" style="ellipse;whiteSpace=wrap;html=1;aspect=fixed;labelBackgroundColor=none;fillColor=#e1d5e7;strokeColor=#9673a6;fontSize=8;" vertex="1" parent="1">
          <mxGeometry x="602.5" y="860" width="17.5" height="17.5" as="geometry" />
        </mxCell>
        <mxCell id="9-1F9sOe33zGmoDG1BaW-1" value="" style="rounded=0;whiteSpace=wrap;html=1;fillColor=#f5f5f5;fontColor=#333333;strokeColor=#666666;" vertex="1" parent="1">
          <mxGeometry x="100" y="210" width="100" height="1100" as="geometry" />
        </mxCell>
        <mxCell id="9-1F9sOe33zGmoDG1BaW-2" value="Database" style="text;html=1;align=center;verticalAlign=middle;whiteSpace=wrap;rounded=0;" vertex="1" parent="1">
          <mxGeometry x="100" y="180" width="100" height="30" as="geometry" />
        </mxCell>
        <mxCell id="9-1F9sOe33zGmoDG1BaW-5" value="Use Auth Code to validate Auth Code (we discard the Access Token)" style="rounded=1;whiteSpace=wrap;html=1;fontSize=8;fillColor=#d5e8d4;strokeColor=#82b366;" vertex="1" parent="1">
          <mxGeometry x="240" y="930" width="80" height="50" as="geometry" />
        </mxCell>
        <mxCell id="9-1F9sOe33zGmoDG1BaW-11" style="edgeStyle=orthogonalEdgeStyle;rounded=0;orthogonalLoop=1;jettySize=auto;html=1;entryX=0;entryY=0.5;entryDx=0;entryDy=0;fontSize=12;startSize=8;endSize=8;" edge="1" parent="1">
          <mxGeometry relative="1" as="geometry">
            <Array as="points">
              <mxPoint x="220" y="1050" />
              <mxPoint x="220" y="1115" />
            </Array>
            <mxPoint x="240" y="1050.0222222222224" as="sourcePoint" />
            <mxPoint x="480.0000000000001" y="1114.9999999999998" as="targetPoint" />
          </mxGeometry>
        </mxCell>
        <mxCell id="9-1F9sOe33zGmoDG1BaW-22" style="edgeStyle=none;curved=1;rounded=0;orthogonalLoop=1;jettySize=auto;html=1;fontSize=12;startSize=8;endSize=8;" edge="1" parent="1" source="9-1F9sOe33zGmoDG1BaW-13">
          <mxGeometry relative="1" as="geometry">
            <mxPoint x="190" y="1185" as="targetPoint" />
          </mxGeometry>
        </mxCell>
        <mxCell id="9-1F9sOe33zGmoDG1BaW-13" value="Update user and issue token" style="rounded=1;whiteSpace=wrap;html=1;fontSize=8;fillColor=#d5e8d4;strokeColor=#82b366;" vertex="1" parent="1">
          <mxGeometry x="240" y="1160" width="80" height="50" as="geometry" />
        </mxCell>
        <mxCell id="9-1F9sOe33zGmoDG1BaW-23" style="edgeStyle=orthogonalEdgeStyle;rounded=0;orthogonalLoop=1;jettySize=auto;html=1;entryX=0;entryY=0.5;entryDx=0;entryDy=0;fontSize=12;startSize=8;endSize=8;" edge="1" parent="1">
          <mxGeometry relative="1" as="geometry">
            <Array as="points">
              <mxPoint x="150" y="1255" />
            </Array>
            <mxPoint x="150" y="1210" as="sourcePoint" />
            <mxPoint x="240" y="1255" as="targetPoint" />
          </mxGeometry>
        </mxCell>
        <mxCell id="9-1F9sOe33zGmoDG1BaW-24" style="edgeStyle=none;curved=1;rounded=0;orthogonalLoop=1;jettySize=auto;html=1;fontSize=12;startSize=8;endSize=8;" edge="1" parent="1" target="9-1F9sOe33zGmoDG1BaW-19">
          <mxGeometry relative="1" as="geometry">
            <mxPoint x="320" y="1255" as="sourcePoint" />
          </mxGeometry>
        </mxCell>
        <mxCell id="9-1F9sOe33zGmoDG1BaW-25" style="edgeStyle=none;curved=1;rounded=0;orthogonalLoop=1;jettySize=auto;html=1;entryX=0;entryY=0.5;entryDx=0;entryDy=0;fontSize=12;startSize=8;endSize=8;" edge="1" parent="1" source="9-1F9sOe33zGmoDG1BaW-19" target="9-1F9sOe33zGmoDG1BaW-20">
          <mxGeometry relative="1" as="geometry" />
        </mxCell>
        <mxCell id="9-1F9sOe33zGmoDG1BaW-19" value="Save token and user details to session" style="rounded=1;whiteSpace=wrap;html=1;fontSize=8;fillColor=#d5e8d4;strokeColor=#82b366;" vertex="1" parent="1">
          <mxGeometry x="373" y="1230" width="80" height="50" as="geometry" />
        </mxCell>
        <mxCell id="9-1F9sOe33zGmoDG1BaW-28" style="edgeStyle=none;curved=1;rounded=0;orthogonalLoop=1;jettySize=auto;html=1;fontSize=12;startSize=8;endSize=8;" edge="1" parent="1" source="9-1F9sOe33zGmoDG1BaW-20">
          <mxGeometry relative="1" as="geometry">
            <mxPoint x="609" y="1255" as="targetPoint" />
          </mxGeometry>
        </mxCell>
        <mxCell id="9-1F9sOe33zGmoDG1BaW-20" value="Return redirect to the originally request URL" style="rounded=1;whiteSpace=wrap;html=1;fontSize=8;fillColor=#d5e8d4;strokeColor=#82b366;" vertex="1" parent="1">
          <mxGeometry x="479" y="1230" width="80" height="50" as="geometry" />
        </mxCell>
        <mxCell id="_1F0Ls5ZjXUeISGJMVn2-1" value="Render Page" style="rounded=1;whiteSpace=wrap;html=1;fontSize=8;fillColor=#d5e8d4;strokeColor=#82b366;" vertex="1" parent="1">
          <mxGeometry x="479" y="380" width="80" height="50" as="geometry" />
        </mxCell>
        <mxCell id="_1F0Ls5ZjXUeISGJMVn2-2" value="Return error" style="rounded=1;whiteSpace=wrap;html=1;fontSize=8;fillColor=#d5e8d4;strokeColor=#82b366;" vertex="1" parent="1">
          <mxGeometry x="240" y="1025" width="80" height="50" as="geometry" />
        </mxCell>
        <mxCell id="_1F0Ls5ZjXUeISGJMVn2-3" value="Handle&lt;div style=&quot;font-size: 12px;&quot;&gt;&lt;span style=&quot;font-size: 8px; background-color: initial; --darkreader-inline-bgcolor: initial;&quot; data-darkreader-inline-bgcolor=&quot;&quot;&gt;TFM API&amp;nbsp;&lt;/span&gt;&lt;span style=&quot;background-color: initial; font-size: 8px; --darkreader-inline-bgcolor: initial; --darkreader-inline-color: #e8e6e3;&quot; data-darkreader-inline-color=&quot;&quot; data-darkreader-inline-bgcolor=&quot;&quot;&gt;Error response&lt;/span&gt;&lt;/div&gt;" style="rounded=1;whiteSpace=wrap;html=1;fontSize=8;fillColor=#d5e8d4;strokeColor=#82b366;" vertex="1" parent="1">
          <mxGeometry x="480" y="1090" width="80" height="50" as="geometry" />
        </mxCell>
        <mxCell id="_1F0Ls5ZjXUeISGJMVn2-4" value="Create or update user details by email" style="rounded=1;whiteSpace=wrap;html=1;fontSize=8;fillColor=#d5e8d4;strokeColor=#82b366;" vertex="1" parent="1">
          <mxGeometry x="110" y="1160" width="80" height="50" as="geometry" />
        </mxCell>
        <mxCell id="_1F0Ls5ZjXUeISGJMVn2-5" value="Create token" style="rounded=1;whiteSpace=wrap;html=1;fontSize=8;fillColor=#d5e8d4;strokeColor=#82b366;" vertex="1" parent="1">
          <mxGeometry x="240" y="1230" width="80" height="50" as="geometry" />
        </mxCell>
        <mxCell id="_1F0Ls5ZjXUeISGJMVn2-6" value="Authenticate Page Request&lt;div style=&quot;font-size: 12px;&quot;&gt;&lt;span style=&quot;font-size: 8px;&quot;&gt;(go back to start)&lt;/span&gt;&lt;/div&gt;" style="rounded=1;whiteSpace=wrap;html=1;fontSize=8;fillColor=#d5e8d4;strokeColor=#82b366;" vertex="1" parent="1">
          <mxGeometry x="610" y="1230" width="80" height="50" as="geometry" />
        </mxCell>
      </root>
    </mxGraphModel>
  </diagram>
</mxfile>
